HIERARCHY
ROOT locator2
{
  OFFSET 53.6172 30.1899 0.816905
  CHANNELS 6 Xposition Yposition Zposition Zrotation Xrotation Yrotation
  JOINT koshi
  {
    OFFSET 0 0 0
    CHANNELS 6 Xposition Yposition Zposition Zrotation Xrotation Yrotation
    JOINT sippo01
    {
      OFFSET 0 42.8363 -0.548134
      CHANNELS 6 Xposition Yposition Zposition Zrotation Xrotation Yrotation
      JOINT sippo02
      {
        OFFSET 0 44.0461 -3.28882
        CHANNELS 6 Xposition Yposition Zposition Zrotation Xrotation Yrotation
        JOINT sippo03
        {
          OFFSET 0 34.1929 -2.46662
          CHANNELS 6 Xposition Yposition Zposition Zrotation Xrotation Yrotation
          JOINT sippo04
          {
            OFFSET 0 30.0959 -1.75404
            CHANNELS 6 Xposition Yposition Zposition Zrotation Xrotation Yrotation
            JOINT sippo05
            {
              OFFSET 0 28.3637 -1.75404
              CHANNELS 6 Xposition Yposition Zposition Zrotation Xrotation Yrotation
              JOINT sippo06
              {
                OFFSET 0 31.6071 -3.2043
                CHANNELS 6 Xposition Yposition Zposition Zrotation Xrotation Yrotation
                End Site
                {
                  OFFSET 0 0 0
                }
              }
            }
          }
        }
      }
    }
    JOINT R_momo
    {
      OFFSET -27.891 13.5892 3.92723
      CHANNELS 6 Xposition Yposition Zposition Zrotation Xrotation Yrotation
      JOINT R_hiza
      {
        OFFSET 0 28.01 1.8232
        CHANNELS 6 Xposition Yposition Zposition Zrotation Xrotation Yrotation
        JOINT R_ashi
        {
          OFFSET 0 24.3992 -2.49174
          CHANNELS 6 Xposition Yposition Zposition Zrotation Xrotation Yrotation
          End Site
          {
            OFFSET 0 0 0
          }
        }
      }
    }
    JOINT L_momo
    {
      OFFSET 27.891 13.5892 3.92714
      CHANNELS 6 Xposition Yposition Zposition Zrotation Xrotation Yrotation
      JOINT L_hiza
      {
        OFFSET 0 28.0098 1.82319
        CHANNELS 6 Xposition Yposition Zposition Zrotation Xrotation Yrotation
        JOINT L_ashi
        {
          OFFSET 0 24.3992 -2.49171
          CHANNELS 6 Xposition Yposition Zposition Zrotation Xrotation Yrotation
          End Site
          {
            OFFSET 0 0 0
          }
        }
      }
    }
  }
  JOINT hara
  {
    OFFSET 0 2.15392 0
    CHANNELS 6 Xposition Yposition Zposition Zrotation Xrotation Yrotation
    JOINT mune
    {
      OFFSET 0 62.0609 0.472494
      CHANNELS 6 Xposition Yposition Zposition Zrotation Xrotation Yrotation
      JOINT R_kata
      {
        OFFSET 22.6695 9.65301 -5.3622
        CHANNELS 6 Xposition Yposition Zposition Zrotation Xrotation Yrotation
        JOINT R_hiji
        {
          OFFSET 0 25.813 1.69098
          CHANNELS 6 Xposition Yposition Zposition Zrotation Xrotation Yrotation
          JOINT R_te
          {
            OFFSET 0 28.5636 -0.966307
            CHANNELS 6 Xposition Yposition Zposition Zrotation Xrotation Yrotation
            End Site
            {
              OFFSET 0 0 0
            }
          }
        }
      }
      JOINT L_kata
      {
        OFFSET -22.6695 9.65298 -5.3622
        CHANNELS 6 Xposition Yposition Zposition Zrotation Xrotation Yrotation
        JOINT L_hiji
        {
          OFFSET 0 25.813 1.69102
          CHANNELS 6 Xposition Yposition Zposition Zrotation Xrotation Yrotation
          JOINT L_te
          {
            OFFSET 0 28.5636 -0.966295
            CHANNELS 6 Xposition Yposition Zposition Zrotation Xrotation Yrotation
            End Site
            {
              OFFSET 0 0 0
            }
          }
        }
      }
      JOINT kubi
      {
        OFFSET 0 23.1438 -0.944988
        CHANNELS 6 Xposition Yposition Zposition Zrotation Xrotation Yrotation
        JOINT atama
        {
          OFFSET 0 20.8625 4.12737
          CHANNELS 6 Xposition Yposition Zposition Zrotation Xrotation Yrotation
          JOINT ago
          {
            OFFSET 0 7.552 -7.58201
            CHANNELS 6 Xposition Yposition Zposition Zrotation Xrotation Yrotation
            End Site
            {
              OFFSET 0 0 0
            }
          }
        }
      }
    }
  }
}
MOTION
Frames:	4
Frame Time:	0.0333333
126.159 29.9999 1.02735 -90 -3.50835e-015 -90 0 0 0 -176.038 -1.35292 0.498544 -5.21541e-007 42.8363 -0.548136 -0.250564 -10.6035 6.4445 2.14991e-006 44.0461 -3.28881 -3.53905 24.0461 -0.629013 1.60954e-006 34.1929 -2.46663 -4.40585 7.69736 -4.38768 5.04788e-006 30.0959 -1.75405 -4.97855 12.5155 -6.39406 1.47973e-006 28.3637 -1.75404 -0.518672 1.35614 5.73583 4.34602e-006 31.6071 -3.2043 0.435339 5.40914 -13.8506 -27.891 13.5892 3.92724 75.5742 -35.6465 -66.4871 -2.77956e-006 28.01 1.8232 19.6348 -80.3859 -15.2258 3.29055e-007 24.3992 -2.49173 -164.786 33.7899 -169.912 27.891 13.5892 3.92714 -72.6627 -29.5458 65.0683 -7.35208e-007 28.0098 1.82319 -8.73088 -71.1877 26.7508 -1.2285e-005 24.3992 -2.49172 160.956 42.2141 168.326 6.07686e-007 2.15392 7.10543e-015 -2.05474 -0.198691 -0.0839958 -3.63798e-012 62.0609 0.472496 -6.68712e-011 3.9291e-016 6.68729e-011 22.6695 9.65299 -5.3622 -161.794 9.58695 14.889 3.8147e-006 25.813 1.69098 0.701864 -83.3617 -2.19572 1.14763e-005 28.5636 -0.966307 82.0095 -31.7807 -72.0871 -22.6695 9.65298 -5.3622 156.322 10 -3.16501 2.84217e-014 25.813 1.69101 0.0182049 -76.4826 -2.53175 3.79526e-006 28.5636 -0.96629 -87.4242 -4.36433 71.0862 2.72893e-012 23.1438 -0.94499 1.86779 -5.11274 3.00129 4.97392e-009 20.8625 4.12738 1.61298 -6.61026 3.1153 -8.23341e-013 7.55204 -7.58201 -1.0064e-005 5.24848 9.21844e-007 
124.786 29.8236 0.887693 -90 -3.50835e-015 -90 0 0 0 -175.424 -0.680923 0.514563 -5.21541e-007 42.8363 -0.548136 0.117054 -11.1501 6.20773 2.1813e-006 44.0461 -3.28881 -2.87334 23.3931 -1.18556 1.48513e-006 34.1929 -2.46663 -3.63406 7.09546 -4.26545 4.658e-006 30.0959 -1.75406 -4.32442 12.1604 -5.85587 1.05533e-006 28.3637 -1.75404 0.214379 1.77523 5.60544 3.71678e-006 31.6071 -3.20431 0.874376 5.48542 -13.2418 -27.891 13.5892 3.92724 77.8329 -35.3669 -63.6011 -2.82196e-006 28.01 1.8232 22.5475 -81.6967 -11.5349 4.3648e-007 24.3992 -2.49173 -165.365 33.7911 -170.326 27.891 13.5892 3.92714 -77.2367 -30.2445 61.7565 -6.23605e-007 28.0098 1.82319 -10.7744 -74.8423 23.816 -1.20939e-005 24.3992 -2.49172 161.735 42.3941 168.618 6.07686e-007 2.15392 3.55271e-015 -1.8331 0.347354 0.00541146 -3.63753e-012 62.0609 0.472496 -1.00178e-005 -1.72998e-012 1.00178e-005 22.6695 9.65299 -5.3622 -161.08 9.02428 15.1321 3.8147e-006 25.813 1.69098 0.965775 -84.6663 -2.12027 1.14702e-005 28.5636 -0.966307 79.9499 -30.5489 -75.1644 -22.6695 9.65298 -5.3622 153.901 10.1954 -0.744666 1.42109e-014 25.813 1.69101 0.0142673 -79.133 -2.58771 3.79447e-006 28.5636 -0.96629 -88.7669 -1.64231 74.1631 2.72893e-012 23.1438 -0.94499 1.86618 -4.53986 4.76141 4.97392e-009 20.8625 4.12738 1.41136 -5.92327 4.72309 -8.1668e-013 7.55204 -7.58201 -1.00685e-005 5.52259 9.70155e-007 
123.402 29.8621 0.746668 -90 -3.50835e-015 -90 0 0 0 -174.805 -0.00180613 0.516411 -5.21541e-007 42.8363 -0.548136 0.489752 -11.7009 5.87351 2.21513e-006 44.0461 -3.28881 -1.84334 22.119 -1.88989 1.25322e-006 34.1929 -2.46662 -2.42631 6.42946 -4.06913 3.99468e-006 30.0959 -1.75412 -3.11978 11.8061 -5.41572 3.02622e-007 28.3637 -1.75403 1.2281 1.68605 5.46315 2.6673e-006 31.6071 -3.20433 1.35255 4.93552 -12.5133 -27.891 13.5892 3.92724 79.698 -34.886 -61.3064 -2.8611e-006 28.01 1.8232 26.5908 -82.9912 -6.70596 5.39779e-007 24.3992 -2.49173 -165.949 33.7953 -170.738 27.891 13.5892 3.92714 -81.7987 -30.3241 58.3391 -5.02333e-007 28.0098 1.82319 -14.1689 -78.5002 19.5194 -1.18946e-005 24.3992 -2.49172 162.525 42.5705 168.907 6.07686e-007 2.15392 3.55271e-015 -1.61082 0.138848 0.0661482 -3.63842e-012 62.0609 0.472496 -4.77682e-011 4.31347e-016 4.77683e-011 22.6695 9.65299 -5.3622 -160.267 10.1551 16.8242 3.8147e-006 25.813 1.69098 2.56412 -87.8005 -0.707547 1.14505e-005 28.5636 -0.966307 77.769 -29.7473 -76.1383 -22.6695 9.65298 -5.3622 154.379 11.8022 -2.12429 0 25.813 1.69101 0.00497722 -84.0699 -1.91266 3.79943e-006 28.5636 -0.966291 -87.4968 -1.53798 76.9417 2.72893e-012 23.1438 -0.94499 1.70687 -3.0174 5.4796 4.97392e-009 20.8625 4.12738 1.40804 -3.99253 5.37876 -8.24896e-013 7.55204 -7.58201 -8.30405e-009 5.79438 4.37378e-008 
122.297 29.8998 0.60838 -90 -3.50835e-015 -90 0 0 0 -174.198 0.657824 0.503997 -5.21541e-007 42.8363 -0.548136 0.855406 -12.2399 5.55304 2.2486e-006 44.0461 -3.28881 -0.681584 20.6255 -2.59654 9.62876e-007 34.1929 -2.46661 -1.24467 5.6633 -3.85166 3.26403e-006 30.0959 -1.754 -1.94151 11.4532 -4.969 -5.64875e-007 28.3637 -1.75401 2.41713 1.10342 5.33553 1.43914e-006 31.6071 -3.20426 1.91901 3.71828 -11.6275 -27.891 13.5892 3.92724 81.1723 -35.1963 -59.251 -2.89518e-006 28.01 1.8232 32.2884 -84.2106 -0.239548 6.40652e-007 24.3992 -2.49173 -166.423 34.3998 -170.554 27.891 13.5892 3.92714 -86.0846 -29.8278 56.0055 -3.78086e-007 28.0098 1.82319 -20.5297 -82.0101 12.0419 -1.16882e-005 24.3992 -2.49172 163.305 42.7386 169.185 6.07686e-007 2.15392 3.55271e-015 -1.33361 -0.607781 0.142948 -1.81943e-012 62.0609 0.472496 0 8.37846e-016 -0 22.6695 9.65299 -5.3622 -160.317 11.3118 18.6189 3.8147e-006 25.813 1.69098 173.037 -89.1175 169.893 1.1432e-005 28.5636 -0.966307 75.3818 -28.6662 -77.7321 -22.6695 9.65298 -5.3622 154.833 13.39 -3.50293 1.42109e-014 25.813 1.69101 -0.025937 -88.9105 -1.2729 3.80458e-006 28.5636 -0.966291 -86.6622 -1.82523 79.302 2.7276e-012 23.1438 -0.94499 1.7049 -1.10291 5.20252 4.97392e-009 20.8625 4.12738 1.50388 -1.95001 4.98234 -8.13127e-013 7.55204 -7.58201 -1.00757e-005 5.84979 1.04205e-006 
